<svg width="215" height="52" viewBox="0 0 215 52" fill="none" xmlns="http://www.w3.org/2000/svg">
<path d="M49.863 32.874C49.9176 32.7783 50.068 32.3272 50.314 31.5344C50.7514 31.097 51.1205 30.5503 51.4622 29.8805C51.8723 29.0057 52.173 28.3359 52.3781 27.8438H51.886C51.5989 27.8165 51.4076 27.8165 51.2709 27.8438C49.2615 31.6575 47.2385 36.1682 45.2018 41.3625C44.9011 42.21 44.5867 43.0301 44.286 43.8502C43.9306 44.8481 43.5889 45.6545 43.2608 46.297C42.7004 45.5042 42.2493 44.4243 41.9213 43.0574C41.3882 40.8431 41.1011 39.7085 41.0874 39.6538C41.1148 38.861 41.0601 37.9179 40.9371 36.8244C40.732 35.02 40.6364 34.1042 40.6364 34.0769C40.5817 33.4891 40.24 33.2021 39.6112 33.2021C39.3788 33.2021 39.1464 33.2431 38.8867 33.3114C38.6817 33.9265 38.34 34.733 37.8479 35.7308C37.3695 36.7423 37.0277 37.5215 36.85 38.0819C35.2234 41.4992 33.5285 44.7387 31.7652 47.8143C31.5055 47.3358 31.3141 46.6114 31.1501 45.6819C30.9724 44.4653 30.8357 43.7272 30.7673 43.4675C30.74 43.1668 30.7673 42.538 30.8493 41.5948C30.904 40.8294 30.8903 40.2143 30.8083 39.7632C30.863 39.5035 30.8903 39.2301 30.8903 38.9157C30.8903 38.6833 30.8493 38.2186 30.7673 37.5078C30.7127 36.92 30.7127 36.4553 30.7673 36.0999C30.6716 35.9769 30.617 35.8128 30.617 35.6078C30.617 35.5395 30.6306 35.3891 30.658 35.1841C30.6853 34.979 30.699 34.8287 30.699 34.733C30.699 34.5006 30.6306 34.3093 30.5076 34.1452C30.3846 33.9812 30.2889 33.6531 30.2206 33.1474C30.1522 32.6553 30.0565 32.3136 29.9335 32.1359C29.7011 31.9582 29.4414 31.9582 29.127 32.1359C28.799 32.3136 28.5666 32.4093 28.4436 32.4366C28.3616 32.9697 28.3752 33.2841 28.4846 33.3524C28.963 34.7057 29.2364 36.592 29.2911 39.0114C29.3457 42.2236 29.4141 44.1646 29.5234 44.8207C29.4961 45.0531 29.4824 45.2855 29.4824 45.5452C29.4824 46.7754 29.9745 48.1833 30.9724 49.7826C31.0954 49.8099 31.2184 49.8236 31.3141 49.8236C31.4918 49.8236 31.6832 49.7689 31.8882 49.6732C32.1889 49.5502 32.3939 49.4682 32.5033 49.4409C33.009 48.7301 33.5421 47.8006 34.1026 46.6524C34.5536 45.7092 35.0184 44.7524 35.4695 43.7819C36.8227 40.7747 37.7659 38.5193 38.299 37.0157C38.381 36.9337 38.4903 36.715 38.6407 36.3323C38.7364 36.0316 38.8867 35.8402 39.0644 35.7582C39.1601 36.5236 39.2695 37.4668 39.3651 38.5877C39.5428 40.474 39.8436 42.0869 40.281 43.4402C40.568 44.356 40.7457 44.9574 40.8141 45.2308C41.7299 47.0898 42.427 48.238 42.9191 48.6617C43.1925 48.7164 43.4522 48.6071 43.6846 48.361C43.8349 48.2107 44.0126 48.1286 44.2176 48.1286L45.3658 45.4085C46.9925 40.4056 48.25 36.6467 49.1385 34.1452C49.4255 33.8172 49.6579 33.3934 49.863 32.874Z" fill="#9F9F9F"/>
<path d="M53.9092 49.7276C53.1984 49.9873 52.638 50.0967 52.2279 50.0693L52.0776 50.1514C51.1071 50.0967 50.4236 49.7276 50.0135 49.0442C49.8632 48.4291 49.7812 47.8686 49.7812 47.3629C49.7812 46.5701 49.9589 45.9003 50.3143 45.3399C50.3143 44.9298 50.5193 44.6974 50.9294 44.6564C51.6402 44.5607 52.0776 44.4514 52.2279 44.3557C54.8797 42.4694 56.4653 40.7607 56.9984 39.2298C57.0531 38.9017 57.1078 38.56 57.1898 38.2046C57.2171 37.8492 57.1214 37.5212 56.9027 37.2068C56.684 36.9061 56.3423 36.7694 55.8502 36.8241C55.2351 36.9061 54.9481 36.9334 54.9754 36.9334C51.5581 39.2708 49.3164 42.6334 48.2092 46.9801C48.2092 48.8391 48.7697 50.165 49.8905 50.9578C50.5193 51.3132 51.1891 51.4909 51.8725 51.4909C53.0891 51.4909 54.7704 50.7528 56.9164 49.2765C56.9164 49.0715 56.9711 48.9348 57.1078 48.8528L57.2171 48.7708C57.4222 48.5657 57.4905 48.3197 57.4085 48.0463C55.8092 48.7571 54.6337 49.3175 53.8955 49.7139L53.9092 49.7276ZM55.3581 38.6557C55.4538 38.7377 55.5495 38.8061 55.6178 38.8881C55.3445 39.5305 54.784 40.2276 53.9776 40.9931C53.3214 41.5809 52.6517 42.1686 51.9955 42.7427C51.8452 42.8248 51.7085 42.8658 51.5718 42.8658C52.6927 40.8564 53.9502 39.4485 55.3581 38.6694V38.6557Z" fill="#9F9F9F"/>
<path d="M90.6115 37.3709C88.6978 38.3687 86.5791 39.845 84.228 41.7997C82.246 43.5083 80.264 45.1896 78.3094 46.8709C78.2547 46.8982 78.2137 46.8982 78.2 46.8709C78.6784 45.0392 79.0612 43.6723 79.3482 42.7838C79.3209 42.5788 79.3482 42.2507 79.3892 41.786C79.4439 41.3213 79.4576 40.9932 79.4576 40.7882C79.4576 39.9544 79.1158 39.4076 78.4324 39.1889C77.2158 39.927 75.9309 40.9932 74.5777 42.4011C73.4295 43.645 72.2813 44.8752 71.1468 46.1054C71.1194 45.7774 71.1878 45.2989 71.3381 44.6702C71.4885 44.0414 71.5705 43.5903 71.5705 43.3169C71.9943 42.4831 72.213 41.6766 72.213 40.9112C72.213 40.2687 72.0626 39.7493 71.7482 39.3392C71.1605 39.1069 70.6684 39.1615 70.2446 39.4896C69.8209 39.8177 69.4108 40.1731 69.0007 40.5148C68.7684 40.6241 68.454 40.8428 68.0439 41.1982C67.6338 41.5536 67.2511 41.7723 66.8957 41.8543C66.8684 42.0047 66.8 42.1004 66.7044 42.1277C66.472 42.2097 66.2396 42.2918 65.9936 42.4011C65.7475 42.4968 65.6108 42.6882 65.5562 42.9752C65.7065 43.3579 65.9389 43.5493 66.2396 43.5493C66.3626 43.5493 66.554 43.522 66.8137 43.4536C67.0734 43.3989 67.2511 43.3579 67.3468 43.3579C68.5633 42.4148 69.4792 41.745 70.0943 41.3349C70.354 41.2392 70.518 41.1436 70.6274 41.0615C70.5453 42.032 70.19 43.3853 69.5612 45.1076C68.9597 46.9119 68.6043 48.2788 68.495 49.1946C68.6727 49.2903 68.8504 49.345 69.0281 49.345C69.0964 49.345 69.2195 49.345 69.3698 49.304C69.4518 49.304 69.5202 49.304 69.5748 49.345C69.6295 49.3723 69.7252 49.4407 69.8209 49.5637C71.2425 48.2925 72.7187 46.6385 74.2497 44.6018C74.605 44.3284 75.1655 43.727 75.9309 42.8112C76.6007 41.991 77.1612 41.4443 77.6532 41.1709C77.6806 41.3486 77.6942 41.54 77.6942 41.745C77.6942 42.2781 77.5576 42.9615 77.2705 43.768C76.9151 44.7658 76.7101 45.4356 76.6554 45.791C76.4777 46.8845 76.382 47.5953 76.382 47.9234C76.382 48.4018 76.4504 48.8529 76.6144 49.263C77.2568 49.345 77.8173 49.1673 78.3367 48.7709C78.5144 48.6479 78.9381 48.2104 79.5942 47.4723C80.4281 46.5292 81.9453 45.1622 84.1324 43.3443C86.1144 41.7177 87.741 40.4601 89.0259 39.5716C89.1489 39.599 89.3266 39.5169 89.559 39.3392H89.641C89.4906 39.927 89.1079 41.0752 88.4928 42.7702C87.987 44.1918 87.6453 45.3536 87.4676 46.2421C87.4676 46.5292 87.4403 46.9666 87.3719 47.5543C87.3036 48.1558 87.2762 48.5932 87.2762 48.8666C87.2762 49.9054 87.618 50.6982 88.3151 51.2313C88.5885 51.1356 88.8618 51.0263 89.1352 50.9306C89.4086 50.8212 89.559 50.5889 89.6136 50.2061C89.3813 50.0968 89.2036 50.0558 89.0805 50.0558H89.0395C88.9849 49.0716 89.2582 47.1716 89.846 44.3694C89.928 43.9867 90.2971 42.9479 90.9532 41.2392C91.4043 39.9954 91.5956 38.9155 91.5273 37.9997C91.3496 37.5623 91.0489 37.3436 90.6115 37.3436V37.3709Z" fill="#9F9F9F"/>
<path d="M101.449 39.9542C101.476 39.8039 101.545 39.5442 101.654 39.1888C101.763 38.8334 101.818 38.56 101.818 38.3823C101.818 38.0543 101.695 37.7535 101.435 37.5075C100.957 37.6579 100.656 37.8629 100.561 38.1226C99.8225 41.2255 99.3987 42.9478 99.303 43.2758C98.8246 44.6701 98.0182 45.8866 96.8973 46.8981C96.0772 48.1283 95.298 48.8391 94.5326 49.0305C94.1772 48.9348 93.9448 48.4974 93.8491 47.7319C93.9038 45.1621 95.298 42.2643 98.0455 39.0248L98.4282 38.642C98.8383 38.1636 99.1117 37.9312 99.262 37.9586V38.0406C99.1937 38.1363 99.1254 38.2183 99.0707 38.273C99.139 38.478 99.139 38.6557 99.0707 38.806C98.975 39.1341 98.9066 39.3528 98.8793 39.4622C98.5649 39.8176 98.3599 40.3507 98.2232 41.0614C98.7836 40.8837 99.098 40.6924 99.18 40.4873C99.4124 40.3643 99.5901 40.1456 99.7131 39.8312C99.8908 39.4212 100.014 39.1751 100.055 39.1068C100.233 38.3686 100.328 37.8766 100.328 37.6578C100.328 37.3025 100.246 37.0291 100.082 36.8377C99.9182 36.6463 99.6858 36.5507 99.3714 36.5507H98.7563C96.4599 38.1773 94.7376 40.5967 93.5621 43.8089C92.9333 45.5859 92.6052 46.9254 92.6052 47.8139C92.6052 48.9075 92.9606 49.7549 93.6714 50.329C94.5599 50.4521 95.3937 50.1787 96.1592 49.4952C96.3095 49.3722 96.8973 48.6614 97.9088 47.3902C97.9908 47.2125 98.1275 46.9938 98.3325 46.7341C98.3325 47.0348 98.4146 47.4175 98.6059 47.8823C98.811 48.4427 98.9203 48.8391 98.9477 49.0715C99.2074 49.2218 99.4671 49.3722 99.7268 49.5226C100 49.6729 100.287 49.7413 100.629 49.7139C100.93 49.5362 101.162 49.4269 101.312 49.3722C101.668 49.1398 101.777 48.8118 101.654 48.388C101.381 48.3334 101.012 48.388 100.588 48.4974C100.328 48.265 100.137 47.9096 100.014 47.4312C99.8908 46.9528 99.8225 46.4334 99.8225 45.9003C99.8225 45.0665 100.014 44.0686 100.397 42.9204C100.725 41.9226 101.066 40.9384 101.422 39.9406L101.449 39.9542Z" fill="#9F9F9F"/>
<path d="M113.233 49.0858C113.233 49.0858 113.069 49.0448 112.891 49.0448C112.002 48.6073 111.469 48.1973 111.292 47.7872C110.909 47.6915 110.554 47.5138 110.226 47.2678C109.897 47.0217 109.556 46.7894 109.228 46.557C108.367 45.6138 107.943 44.698 107.97 43.8095L108.052 43.7685C108.23 43.6728 108.298 43.4404 108.244 43.0851C108.175 43.0851 108.12 43.0987 108.052 43.1124L108.079 43.0851L108.12 42.634C109.296 40.98 111.018 39.9412 113.315 39.5038C113.492 39.1757 113.41 38.8477 113.082 38.5059C112.877 38.4513 112.672 38.4239 112.467 38.4239C112.536 38.4239 111.948 38.5606 110.677 38.8477C110.349 38.6973 110.103 38.793 109.952 39.1484C109.87 39.2987 109.72 39.3534 109.487 39.2987C108.626 40.1462 107.929 40.7203 107.382 41.062C107.437 40.6246 107.587 40.0095 107.861 39.2167C108.121 38.4102 108.285 37.8088 108.339 37.3987C108.421 37.221 108.503 36.9203 108.626 36.4829C108.736 36.0455 108.872 35.7311 109.023 35.5261C108.995 35.3757 108.982 35.239 108.982 35.1023C108.982 34.8426 109.05 34.5146 109.187 34.0908C109.323 33.6671 109.392 33.3527 109.392 33.134C109.392 32.9153 109.487 32.6146 109.665 32.2182C109.843 31.8218 109.925 31.4937 109.897 31.2477C110.28 30.2088 110.472 29.5254 110.472 29.1837C110.417 28.8009 110.171 28.6096 109.747 28.6096C109.487 28.6096 109.269 28.6779 109.105 28.8009C108.64 31.07 107.861 34.2412 106.74 38.3419C105.564 42.675 104.772 45.8052 104.334 47.7735C104.156 48.6347 104.061 49.1814 104.061 49.4138C104.061 49.8512 104.17 50.234 104.403 50.603C105.168 50.5757 105.551 50.2613 105.551 49.6462V48.662C105.551 48.4296 105.605 48.2519 105.701 48.1289C106.125 46.6253 106.439 45.4908 106.644 44.7253C106.74 45.0807 106.808 45.3541 106.836 45.5318C108.052 47.7735 110.089 49.2361 112.959 49.9196C113.11 49.8376 113.26 49.7692 113.397 49.6872C113.533 49.6052 113.588 49.4138 113.561 49.1131H113.328L113.219 49.0721L113.233 49.0858Z" fill="#9F9F9F"/>
<path d="M120.653 49.7276C119.943 49.9873 119.382 50.0967 118.972 50.0693L118.822 50.1514C117.851 50.0967 117.168 49.7276 116.758 49.0442C116.607 48.4291 116.525 47.8686 116.525 47.3629C116.525 46.5701 116.703 45.9003 117.058 45.3399C117.058 44.9298 117.263 44.6974 117.674 44.6564C118.384 44.5607 118.822 44.4514 118.972 44.3557C121.624 42.4694 123.209 40.7607 123.743 39.2298C123.797 38.9017 123.852 38.56 123.934 38.2046C123.961 37.8492 123.866 37.5212 123.647 37.2068C123.428 36.9061 123.086 36.7694 122.594 36.8241C121.979 36.9061 121.692 36.9334 121.72 36.9334C118.302 39.2708 116.061 42.6334 114.953 46.9801C114.953 48.8391 115.514 50.165 116.635 50.9578C117.263 51.3132 117.933 51.4909 118.617 51.4909C119.833 51.4909 121.515 50.7528 123.661 49.2765C123.661 49.0715 123.729 48.9348 123.852 48.8528L123.961 48.7708C124.166 48.5657 124.235 48.3197 124.153 48.0463C122.553 48.7571 121.378 49.3175 120.64 49.7139L120.653 49.7276ZM122.102 38.6557C122.198 38.7377 122.294 38.8061 122.362 38.8881C122.089 39.5305 121.528 40.2276 120.722 40.9931C120.066 41.5809 119.396 42.1686 118.74 42.7427C118.589 42.8248 118.453 42.8658 118.316 42.8658C119.437 40.8564 120.694 39.4485 122.102 38.6694V38.6557Z" fill="#9F9F9F"/>
<path d="M138.546 33.694C138.601 33.489 138.656 33.366 138.697 33.3113L138.806 33.2293C139.011 33.0242 139.093 32.8192 139.08 32.6142C139.052 32.4091 138.943 32.2725 138.752 32.1768C138.56 32.0948 138.451 31.9991 138.423 31.9307C138.246 32.0127 138.082 32.0401 137.931 32.0401C137.453 32.0127 137.139 32.0127 137.016 32.0401C136.728 32.1358 136.592 32.3955 136.592 32.8055C136.674 33.489 137.316 33.7897 138.533 33.6804L138.546 33.694Z" fill="#9F9F9F"/>
<path d="M137.753 47.2948C137.138 47.9373 136.714 48.3337 136.455 48.5114C136.359 48.5387 136.209 48.648 136.017 48.8394C135.826 49.0308 135.676 49.1128 135.58 49.0855C135.375 48.8257 135.252 48.6344 135.197 48.4703C135.143 47.7869 135.307 46.3517 135.689 44.1509L136.14 41.7042C136.619 40.3099 137.179 39.0797 137.822 38.0409C137.89 37.9452 137.931 37.8222 137.931 37.6992C137.931 37.4668 137.822 37.2754 137.589 37.0841C137.357 36.9064 137.125 36.8243 136.865 36.8243C136.605 36.8243 136.4 36.9064 136.25 37.0841C135.771 38.1776 135.43 39.0251 135.225 39.5992C134.186 43.1121 133.653 45.8732 133.653 47.8826C133.653 48.3337 133.68 48.7984 133.721 49.2495C134.281 49.9876 134.787 50.3703 135.252 50.3977C135.607 50.425 135.976 50.3293 136.359 50.1243C136.742 49.9193 137.097 49.7142 137.425 49.5092C137.958 48.7984 138.341 48.2516 138.573 47.8689C139.052 47.5682 139.53 46.6524 139.981 45.1214L139.107 46.1466C138.669 46.3516 138.218 46.7207 137.726 47.2538L137.753 47.2948Z" fill="#9F9F9F"/>
<path d="M147.911 38.1642C147.911 38.1642 147.979 38.1095 148.034 38.0821C149.401 35.8404 150.153 33.8447 150.289 32.0814C150.002 31.5757 149.701 31.316 149.373 31.316C149.168 31.316 148.977 31.439 148.799 31.6987C148.266 33.7627 147.364 35.9498 146.093 38.2735C145.532 38.3555 144.972 38.4102 144.412 38.4649C143.783 38.5606 143.25 38.7793 142.84 39.1073C142.252 39.408 141.937 39.7088 141.883 39.9821C141.965 40.2692 142.061 40.5426 142.17 40.8296C142.279 41.1167 142.539 41.2534 142.922 41.2534C143.578 40.4606 144.357 40.0778 145.245 40.0778C144.89 41.0483 144.576 41.7591 144.289 42.2102C143.455 44.1239 143.031 45.7778 143.031 47.172C143.031 48.1972 143.25 49.0857 143.687 49.8512C144.138 50.3843 144.876 50.603 145.86 50.5073C147.774 50.0699 148.977 49.1814 149.496 47.8282C148.881 47.8282 148.28 48.0059 147.706 48.3613C147.118 48.7167 146.667 48.908 146.339 48.9354C145.368 49.1677 144.781 49.0584 144.576 48.6346C144.548 48.3476 144.535 48.0605 144.535 47.7598C144.535 45.6274 145.409 43.003 147.173 39.9001C147.624 39.7498 148.171 39.7088 148.813 39.7908C149.852 39.9138 150.576 39.9685 150.986 39.9411V39.2167C150.604 38.8613 150.125 38.6016 149.537 38.4512C149.004 38.3692 148.471 38.2872 147.938 38.1778L147.911 38.1642Z" fill="#9F9F9F"/>
<path d="M180.579 36.9744C180.866 36.496 181.043 36.0039 181.153 35.5255H180.428C179.28 36.6736 177.954 38.3276 176.451 40.4873C174.592 43.2074 173.361 44.9434 172.746 45.6815C172.459 46.2146 172.213 46.4743 171.981 46.447C171.325 46.0369 170.901 45.3398 170.723 44.342C170.696 44.1643 170.641 43.3168 170.573 41.7859C170.669 41.5808 170.751 41.2391 170.778 40.7744C170.819 40.2959 170.901 39.9679 171.024 39.7629C170.997 39.6125 171.024 39.3938 171.079 39.1067C171.147 38.8197 171.174 38.6283 171.174 38.4916C171.174 38.1636 170.983 37.9039 170.6 37.7262C170.095 37.6031 169.63 37.6852 169.22 37.9995C167.238 41.1024 165.939 43.2895 165.324 44.5743C165.037 44.8341 164.682 45.3261 164.231 46.0779C163.793 46.8297 163.356 47.3355 162.946 47.5815C162.864 47.1988 162.864 46.652 162.946 45.9413C163.069 44.9297 163.151 44.3693 163.192 44.2873C163.233 44.1916 163.246 44.0823 163.246 43.9182V43.8089C163.246 43.8089 163.397 43.7132 163.711 43.6585C163.383 43.2758 163.287 42.8931 163.438 42.5103C163.67 41.9226 163.779 41.4988 163.766 41.2254C163.752 40.9521 163.82 40.5283 163.957 39.9269C164.094 39.3254 164.162 38.888 164.162 38.6147C164.162 38.1636 164.026 37.7398 163.738 37.3571C163.588 37.1521 163.301 37.0564 162.905 37.0564C162.577 37.0564 162.385 37.1931 162.331 37.4801C162.276 38.0132 162.044 39.8722 161.647 43.0571C161.346 45.3808 161.196 47.3218 161.223 48.8938C161.223 49.4815 161.51 49.7686 162.098 49.7686H163.205C164.203 48.7571 164.9 47.9643 165.31 47.4038C165.433 47.1031 165.734 46.5974 166.185 45.9139C166.595 45.2988 166.855 44.7794 166.992 44.342C167.785 43.2211 168.345 42.3736 168.673 41.7859C168.646 42.319 168.741 43.0024 168.946 43.8089C169.206 44.8204 169.343 45.4902 169.37 45.7909C169.876 46.5017 170.272 47.0621 170.546 47.4722C171.284 47.8276 172.036 47.8959 172.801 47.6635C174.127 46.8024 175.412 45.2988 176.656 43.1528C178.282 40.4053 179.376 38.7103 179.936 38.0679C180.21 37.5348 180.415 37.1657 180.551 36.9607L180.579 36.9744Z" fill="#9F9F9F"/>
<path d="M185.761 38.8613C185.515 39.0116 185.324 39.1483 185.228 39.244C184.667 39.6951 184.271 39.8864 184.039 39.8181C183.396 39.9001 182.904 40.1735 182.549 40.6519C182.193 40.8023 181.865 41.103 181.551 41.5267C181.114 42.0872 180.84 42.4289 180.703 42.5519C180.348 43.29 179.979 44.0145 179.596 44.7253C179.159 45.6138 178.885 46.3929 178.762 47.049C178.872 48.3749 179.337 49.3044 180.17 49.8375C180.526 49.9332 180.881 49.9879 181.237 49.9879C182.562 49.9879 183.615 49.5368 184.408 48.6209C185.201 48.0332 185.747 47.5684 186.048 47.213C186.103 47.1584 186.226 46.9533 186.431 46.5706C186.581 46.3109 186.745 46.1469 186.923 46.0785C187.456 45.0807 187.825 44.3425 188.03 43.8231C188.208 43.167 188.303 42.5109 188.303 41.8821C188.303 40.6656 187.948 39.7361 187.224 39.0936C186.923 38.9433 186.417 38.8613 185.734 38.8613H185.761ZM186.909 42.7843C185.706 46.1742 183.793 48.1015 181.141 48.5936C180.867 48.5389 180.649 48.3749 180.498 48.1015C180.416 47.2814 180.58 46.4339 180.991 45.5454C181.073 45.313 181.496 44.5339 182.289 43.2217C182.467 43.1123 182.754 42.8663 183.164 42.4562C183.492 42.1008 183.793 41.8821 184.039 41.8001C184.039 41.8548 184.039 41.8821 184.039 41.9095C184.093 42.6202 184.257 42.9756 184.531 42.9756C184.626 42.9756 184.749 42.9483 184.873 42.8936C185.132 42.6613 185.283 42.3332 185.337 41.8958C185.365 41.5404 185.392 41.1713 185.406 40.7886C185.255 40.5562 185.146 40.4059 185.105 40.3375C185.843 40.0778 186.253 39.9411 186.321 39.9138C186.677 40.1462 186.882 40.5289 186.937 41.062C186.909 40.8296 186.896 41.4037 186.896 42.7843H186.909Z" fill="#9F9F9F"/>
<path d="M199.442 36.7562C198.472 36.7562 197.433 37.2073 196.312 38.0958C195.041 39.2987 194.111 40.2282 193.523 40.8843C193.551 40.8569 193.564 40.8159 193.578 40.7749C193.578 40.7202 193.592 40.6792 193.592 40.6656C193.674 40.5152 193.715 40.3922 193.742 40.3238C193.742 40.1325 193.742 40.0095 193.742 39.9411C193.77 39.8864 193.852 39.8591 194.016 39.8591C194.016 39.326 194.07 38.9843 194.166 38.8476C194.262 38.7109 194.316 38.5879 194.316 38.4785C194.316 38.0001 193.893 37.7951 193.059 37.8634C192.471 37.9181 192.307 38.2735 192.567 38.9296C190.626 44.6843 189.436 48.1425 189.013 49.3181C189.218 49.8512 189.491 49.9742 189.847 49.7008C189.956 49.6461 190.052 49.7008 190.161 49.8922C190.598 49.7965 190.872 49.4821 191.008 48.9763C191.186 48.3202 191.336 47.9101 191.473 47.7598C191.952 46.4339 192.389 45.4771 192.772 44.903C192.895 44.7799 193.045 44.4929 193.195 44.0555C193.318 43.7274 193.496 43.5361 193.729 43.4814C194.316 42.1555 195.123 41.0073 196.134 40.0095C197.255 38.9159 198.458 38.2325 199.757 37.9454C199.934 38.1231 200.03 38.4512 200.03 38.9433C200.03 39.7771 200.071 40.2965 200.139 40.4742H200.672C200.973 39.2987 201.123 38.6015 201.123 38.3692C201.123 37.9318 201 37.5217 200.741 37.1116C200.331 36.8792 199.907 36.7699 199.442 36.7699V36.7562Z" fill="#9F9F9F"/>
<path d="M210.555 49.0858C210.555 49.0858 210.391 49.0448 210.214 49.0448C209.325 48.6073 208.792 48.1973 208.614 47.7872C208.232 47.6915 207.876 47.5138 207.548 47.2678C207.22 47.0217 206.878 46.7894 206.55 46.557C205.689 45.6138 205.266 44.698 205.293 43.8095L205.375 43.7685C205.553 43.6728 205.621 43.4404 205.566 43.0851C205.498 43.0851 205.443 43.0987 205.389 43.1124L205.416 43.0851L205.457 42.634C206.632 40.98 208.355 39.9412 210.651 39.5038C210.829 39.1757 210.747 38.8477 210.419 38.5059C210.214 38.4513 210.009 38.4239 209.804 38.4239C209.886 38.4239 209.284 38.5606 208.013 38.8477C207.685 38.6973 207.439 38.793 207.289 39.1484C207.207 39.2987 207.056 39.3534 206.824 39.2987C205.963 40.1462 205.266 40.7203 204.732 41.062C204.787 40.6246 204.937 40.0095 205.211 39.2167C205.484 38.4102 205.635 37.8088 205.689 37.3987C205.771 37.221 205.853 36.9203 205.976 36.4829C206.086 36.0455 206.222 35.7311 206.373 35.5261C206.345 35.3757 206.332 35.239 206.332 35.1023C206.332 34.8426 206.4 34.5146 206.537 34.0908C206.673 33.6671 206.742 33.3527 206.742 33.134C206.742 32.9153 206.824 32.6146 207.015 32.2182C207.193 31.8218 207.275 31.4937 207.248 31.2477C207.63 30.2088 207.822 29.5254 207.822 29.1837C207.767 28.8009 207.535 28.6096 207.097 28.6096C206.837 28.6096 206.632 28.6779 206.455 28.8009C205.99 31.07 205.211 34.2412 204.09 38.3419C202.914 42.675 202.122 45.8052 201.684 47.7735C201.507 48.6347 201.411 49.1814 201.411 49.4138C201.411 49.8512 201.52 50.234 201.753 50.603C202.518 50.5757 202.901 50.2613 202.901 49.6462V48.662C202.901 48.4296 202.955 48.2519 203.051 48.1289C203.475 46.6253 203.789 45.4908 203.994 44.7253C204.09 45.0807 204.158 45.3541 204.186 45.5318C205.402 47.7735 207.439 49.2361 210.309 49.9196C210.46 49.8376 210.61 49.7692 210.747 49.6872C210.884 49.6052 210.938 49.4138 210.911 49.1131H210.678L210.569 49.0721L210.555 49.0858Z" fill="#9F9F9F"/>
<path d="M214.618 47.7049C214.413 47.6502 214.221 47.6092 214.043 47.5546C213.278 47.5546 213.018 48.156 213.237 49.3589C213.237 49.5366 213.305 49.6596 213.428 49.7143C213.551 49.7826 213.674 49.851 213.811 49.9193C214.522 49.8373 214.918 49.4409 215 48.6891V48.156C214.946 47.8963 214.823 47.7459 214.618 47.6913V47.7049Z" fill="#9F9F9F"/>
<path d="M3.15754 1.57166L22.9366 0.437134L23.7568 22.4033L0 22.0205L0.519423 7.50402L3.15754 1.57166Z" fill="#E03A26"/>
<path d="M40.9525 9.5407V12.6299H33.1748V19.3004H43.9323V22.3896H28.4727V0.437134H43.6589V3.51266H33.1748V9.5407H40.9525Z" fill="white"/>
<path d="M62.0306 22.3896H48.1292V0.437134H52.8313V19.2731H62.0306V22.3896Z" fill="white"/>
<path d="M82.3964 15.7057C81.3029 20.2848 77.4619 22.8273 73.2929 22.8273C70.7914 22.8273 68.2627 22.0891 66.4994 20.4079C64.613 18.6309 63.4102 15.7741 63.4102 11.2769C63.4102 7.38127 64.5173 4.4561 66.472 2.54244C68.249 0.874818 70.5864 0 73.3475 0C77.6943 0 81.1936 2.10503 82.1504 6.86185L77.4209 7.27192C76.8331 4.6338 75.6576 3.11654 73.3202 3.11654C70.4497 3.11654 68.2353 5.3856 68.2353 11.4546C68.2353 17.5237 70.5864 19.7244 73.2655 19.7244C75.9447 19.7244 77.2159 17.5237 77.6123 15.1726L82.3964 15.7194V15.7057Z" fill="white"/>
<path d="M96.9942 8.29682C96.4885 6.61553 95.9964 5.00259 95.518 3.06159H95.2719C94.8072 4.98892 94.3014 6.67021 93.823 8.29682L92.2784 13.5321H98.5388L96.9942 8.29682ZM91.2669 16.6076L89.5583 22.4033H84.446L92.2237 0.437134H98.5935L106.385 22.4033H101.273L99.5366 16.6076H91.2532H91.2669Z" fill="white"/>
</svg>
